<?xml version="1.0" standalone="no"?>
<!DOCTYPE svg PUBLIC "-//W3C//DTD SVG 20010904//EN"
 "http://www.w3.org/TR/2001/REC-SVG-20010904/DTD/svg10.dtd">
<svg version="1.0" xmlns="http://www.w3.org/2000/svg"
 width="275.000000pt" height="275.000000pt" viewBox="0 0 275.000000 275.000000"
 preserveAspectRatio="xMidYMid meet">
<metadata>
Created by potrace 1.11, written by Peter Selinger 2001-2013
</metadata>
<g transform="translate(0.000000,275.000000) scale(0.100000,-0.100000)"
fill="#000000" stroke="none">
<path d="M1266 2333 c-29 -8 -87 -46 -118 -78 -116 -117 -87 -335 57 -419 l30
-18 0 -274 c0 -151 -1 -274 -1 -274 -1 0 -20 7 -43 15 -24 8 -81 19 -128 25
-114 14 -156 39 -193 109 -12 22 -10 27 11 40 36 24 78 71 102 116 32 59 31
173 -2 238 -50 97 -140 151 -250 150 -108 0 -191 -53 -242 -153 -32 -61 -32
-176 -1 -235 26 -49 73 -100 113 -120 19 -10 29 -23 29 -38 0 -37 65 -159 106
-201 80 -81 167 -120 294 -132 79 -7 128 -31 165 -80 26 -34 30 -48 33 -126 3
-54 1 -88 -5 -88 -21 0 -102 -83 -123 -125 -92 -190 65 -414 275 -392 166 17
277 172 241 337 -11 48 -62 126 -100 152 -49 33 -53 43 -50 110 5 83 19 122
59 156 39 35 78 48 160 56 112 9 202 53 278 135 49 53 92 131 103 188 4 22 17
39 38 52 109 68 155 201 112 328 -58 175 -302 236 -438 110 -122 -114 -119
-309 8 -414 24 -21 44 -41 44 -46 0 -21 -58 -87 -88 -101 -19 -9 -61 -19 -95
-22 -50 -4 -101 -15 -177 -38 -3 0 -6 121 -6 271 l-2 272 27 17 c85 54 124
124 128 229 3 108 -41 187 -136 243 -35 20 -59 26 -120 28 -42 2 -85 0 -95 -3z
m140 -181 c47 -37 56 -88 25 -138 -61 -100 -217 -23 -179 89 22 60 107 88 154
49z m-615 -373 c21 -11 49 -59 49 -84 0 -10 -7 -32 -15 -50 -28 -59 -102 -73
-154 -29 -97 81 7 224 120 163z m1236 -11 c51 -47 46 -124 -10 -158 -48 -30
-95 -24 -135 17 -19 19 -27 86 -12 112 30 57 111 72 157 29z m-610 -1150 c45
-42 39 -121 -11 -153 -69 -45 -156 0 -156 81 0 87 103 132 167 72z"/>
</g>
</svg>
